HIERARCHY
ROOT pelvis
{
  OFFSET 0 100 0
  CHANNELS 6 Xposition Yposition Zposition Zrotation Xrotation Yrotation
  JOINT pelvis_right_femur
  {
    OFFSET -10.78128 -3.44521 -0.5502486
    CHANNELS 3 Zrotation Xrotation Yrotation
    JOINT right_femur_tibia
    {
      OFFSET -0.8047443 -44.0398 -0.1307829
      CHANNELS 3 Zrotation Xrotation Yrotation
      JOINT right_tibia_foot
      {
        OFFSET 3.006224 -47.83518 -5
        CHANNELS 3 Zrotation Xrotation Yrotation
        End Site
        {
          OFFSET 0 -5 15
        }
      }
    }
  }
  JOINT pelvis_left_femur
  {
    OFFSET 10.78128 -3.44521 -0.5502486
    CHANNELS 3 Zrotation Xrotation Yrotation
    JOINT left_femur_tibia
    {
      OFFSET 0.8047443 -44.0398 -0.1307829
      CHANNELS 3 Zrotation Xrotation Yrotation
      JOINT left_tibia_foot
      {
        OFFSET -4.370144 -48.10324 -4.275266
        CHANNELS 3 Zrotation Xrotation Yrotation
        End Site
        {
          OFFSET 0 -5 15
        }
      }
    }
  }
  JOINT pelvis_spine1
  {
    OFFSET 0 6.468898 -3.129235
    CHANNELS 3 Zrotation Xrotation Yrotation
    JOINT spine1
    {
      OFFSET 0 23.15396 4.99043
      CHANNELS 3 Zrotation Xrotation Yrotation
      JOINT spine2
      {
        OFFSET 0 20.79997 -5.064912
        CHANNELS 3 Zrotation Xrotation Yrotation
        JOINT neck
        {
          OFFSET 0 14.38658 9.616178
          CHANNELS 3 Zrotation Xrotation Yrotation
          End Site
          {
            OFFSET 0 20 0
          }
        }
      }
      JOINT right_manubrium
      {
        OFFSET -5.722621 16.35077 3.967754
        CHANNELS 3 Zrotation Xrotation Yrotation
        JOINT right_clavicle
        {
          OFFSET -13.16364 1.694482 -4.693211
          CHANNELS 3 Zrotation Xrotation Yrotation
          JOINT right_humerus
          {
            OFFSET -28.5034 -0.3100689 -2.792744
            CHANNELS 3 Zrotation Xrotation Yrotation
            JOINT right_radius
            {
              OFFSET -25.15693 0.02248979 -1.271978
              CHANNELS 3 Zrotation Xrotation Yrotation
              End Site
              {
                OFFSET -15 0 0
              }
            }
          }
        }
      }
      JOINT left_manubrium
      {
        OFFSET 5.722621 16.35077 3.967754
        CHANNELS 3 Zrotation Xrotation Yrotation
        JOINT left_clavicle
        {
          OFFSET 13.16364 1.694482 -4.693211
          CHANNELS 3 Zrotation Xrotation Yrotation
          JOINT left_humerus
          {
            OFFSET 29.39168 -1.063119 -2.237045
            CHANNELS 3 Zrotation Xrotation Yrotation
            JOINT left_radius
            {
              OFFSET 24.59957 -0.9528479 0.9047498
              CHANNELS 3 Zrotation Xrotation Yrotation
              End Site
              {
                OFFSET 15 -0 -0
              }
            }
          }
        }
      }
    }
  }
}
MOTION
Frames: 11
Frame Time: 0.0416666666667
-1282.772 126.6765 1541.784 -11.13546 12.22606 -137.4294 2.993301 13.54475 -6.689019 -0 27.77703 -0 -16.75762 4.328141 -0.7989036 -2.53915 -1.84574 -13.01392 -0 18.27813 -0 -9.825561 -15.12648 22.34473 1.630194 1.535491 5.719524 -2.70312 10.12001 -3.660658 3.142956 22.07737 1.504076 -3.043948 -18.11603 8.281525 -5.82468 -22.64213 7.708188 95.06219 22.28081 -13.04927 -0 0 20.84398 -15.96134 8.068536 9.498116 2.466926 -18.28091 -4.244553 -85.96349 20.11117 23.23248 0 0 -20.21021 2.78697 9.093682 15.59199
-1286.884 126.6073 1537.481 -11.07114 12.34126 -137.8354 3.043736 13.63238 -6.697934 -0 27.5904 -0 -16.76374 4.207317 -0.8522489 -2.505957 -1.898685 -12.99314 -0 18.33802 -0 -9.824563 -15.08764 22.36702 1.631951 1.52646 5.727358 -2.698618 10.1395 -3.662732 3.13736 22.06729 1.504662 -3.040123 -18.12206 8.272146 -5.822589 -22.66783 7.719999 95.05754 22.2718 -13.04182 -0 0 20.86201 -15.9752 8.089279 9.517466 2.459595 -18.28725 -4.255363 -85.9857 20.08319 23.28447 0 0 -20.20386 2.784858 9.095065 15.59378
-1290.966 126.5337 1533.15 -10.9977 12.44746 -138.2539 3.085628 13.76541 -6.690198 -0 27.43945 -0 -16.76443 4.070347 -0.9001247 -2.476186 -1.992797 -12.98051 -0 18.3713 -0 -9.812781 -15.02872 22.39618 1.634469 1.516478 5.738517 -2.69356 10.16259 -3.663431 3.129894 22.05391 1.5058 -3.035703 -18.12851 8.260683 -5.818656 -22.7021 7.735395 95.04567 22.25795 -13.02533 -0 0 20.89575 -15.993 8.116947 9.543756 2.449891 -18.28805 -4.267483 -86.01987 20.04975 23.35907 0 0 -20.18505 2.776678 9.093645 15.60065
-1295.018 126.4578 1528.791 -10.91424 12.54194 -138.683 3.115601 13.93267 -6.666712 -0 27.33466 -0 -16.75954 3.927246 -0.938708 -2.452095 -2.120425 -12.97691 -0 18.37423 -0 -9.791373 -14.95459 22.4295 1.63754 1.506311 5.752099 -2.688333 10.1874 -3.662719 3.121163 22.03828 1.507388 -3.031034 -18.13486 8.248045 -5.813195 -22.74219 7.753123 95.02749 22.24033 -13.00112 -0 0 20.94252 -16.01332 8.149356 9.574878 2.438619 -18.28329 -4.279929 -86.06325 20.01355 23.45026 0 0 -20.15528 2.763095 9.089571 15.612
-1299.042 126.3817 1524.407 -10.82069 12.62276 -139.1202 3.131096 14.12043 -6.629695 -0 27.28298 -0 -16.74934 3.789023 -0.964746 -2.435657 -2.271105 -12.98255 -0 18.34605 -0 -9.762371 -14.87136 22.46399 1.640901 1.496747 5.767003 -2.683341 10.21191 -3.660667 3.111878 22.02167 1.509299 -3.026483 -18.14062 8.23525 -5.806652 -22.78487 7.771732 95.00446 22.22032 -12.97115 -0 0 20.9985 -16.03453 8.183894 9.60831 2.426723 -18.27337 -4.291675 -86.11232 19.97756 23.55057 0 0 -20.117 2.745212 9.083194 15.6269
-1303.038 126.3075 1519.998 -10.71792 12.68908 -139.5623 3.130678 14.31354 -6.582445 -0 27.28756 -0 -16.73461 3.666909 -0.975912 -2.428359 -2.432401 -12.99701 -0 18.28927 -0 -9.728445 -14.7859 22.49665 1.644265 1.488545 5.782008 -2.678978 10.23409 -3.657451 3.102795 22.00545 1.511388 -3.022407 -18.14531 8.223342 -5.799565 -22.82663 7.78969 94.97845 22.19951 -12.93789 -0 0 21.05908 -16.05492 8.217726 9.641316 2.4152 -18.25914 -4.301757 -86.16309 19.94473 23.65178 0 0 -20.07336 2.724497 9.075034 15.64414
-1307.009 126.2375 1515.563 -10.60765 12.7413 -140.0055 3.11426 14.49668 -6.529008 -0 27.34759 -0 -16.7166 3.571343 -0.9711174 -2.430998 -2.590984 -13.01919 -0 18.20952 -0 -9.692601 -14.70523 22.52483 1.647342 1.482363 5.795885 -2.675591 10.25213 -3.653336 3.094654 21.99095 1.5135 -3.019131 -18.14859 8.213298 -5.792524 -22.86405 7.805528 94.95163 22.17958 -12.90412 -0 0 21.11921 -16.07282 8.248051 9.671187 2.405006 -18.24182 -4.309356 -86.21141 19.91775 23.74557 0 0 -20.02799 2.702661 9.065747 15.66231
-1310.955 126.1734 1511.104 -10.49227 12.78111 -140.4463 3.083198 14.65556 -6.473792 -0 27.45829 -0 -16.69689 3.510831 -0.9507099 -2.443521 -2.733852 -13.04736 -0 18.11477 -0 -9.657851 -14.63588 22.54647 1.649878 1.478706 5.807505 -2.673456 10.26461 -3.648658 3.088107 21.97936 1.515479 -3.016914 -18.15021 8.205935 -5.786113 -22.8941 7.817971 94.92625 22.1622 -12.87265 -0 0 21.17392 -16.08679 8.272363 9.695486 2.396965 -18.22286 -4.31388 -86.25334 19.89878 23.82433 0 0 -19.98467 2.681511 9.056072 15.67995
-1314.875 126.1168 1506.619 -10.37454 12.81133 -140.881 3.040212 14.77806 -6.421185 -0 27.61113 -0 -16.67725 3.490877 -0.9165043 -2.464946 -2.849517 -13.07929 -0 18.01428 -0 -9.626928 -14.58331 22.56019 1.651675 1.477867 5.815944 -2.672745 10.27058 -3.643794 3.083665 21.97159 1.517178 -3.015931 -18.15007 8.201833 -5.780854 -22.91438 7.826054 94.90441 22.14878 -12.84606 -0 0 21.21875 -16.0957 8.288699 9.71228 2.39169 -18.20384 -4.315014 -86.28552 19.88926 23.88182 0 0 -19.94696 2.662784 9.046779 15.69563
-1318.77 126.0684 1502.109 -10.25726 12.83565 -141.3069 2.989133 14.85509 -6.375212 -0 27.79425 -0 -16.65943 3.513201 -0.8716195 -2.493404 -2.929024 -13.11239 -0 17.91725 -0 -9.602078 -14.55147 22.56533 1.652607 1.479898 5.820565 -2.673509 10.26971 -3.639136 3.081655 21.96823 1.518464 -3.01625 -18.14821 8.201279 -5.777162 -22.92339 7.829204 94.88788 22.14043 -12.82646 -0 0 21.25015 -16.0989 8.295829 9.720313 2.38954 -18.18631 -4.312744 -86.30545 19.88978 23.91372 0 0 -19.91789 2.647985 9.038604 15.70811
-1322.639 126.0287 1497.573 -10.14292 12.85821 -141.7217 2.934502 14.88124 -6.339254 -0 27.99318 -0 -16.64498 3.575436 -0.8201392 -2.526319 -2.966675 -13.14393 -0 17.83179 -0 -9.584952 -14.54248 22.56187 1.65263 1.484598 5.821066 -2.675672 10.26221 -3.635055 3.08219 21.96946 1.519232 -3.017832 -18.14481 8.20425 -5.775308 -22.92063 7.827276 94.87794 22.13778 -12.81533 -0 0 21.26584 -16.09623 8.293354 9.719105 2.390598 -18.17166 -4.307338 -86.31174 19.90006 23.91797 0 0 -19.89966 2.638259 9.032194 15.71643
